<svg width="56" height="12" viewBox="0 0 56 12" fill="none" xmlns="http://www.w3.org/2000/svg">
<path d="M4.11024 11.5039L-0.0017556 0.143906H2.19024L5.37424 9.18391L8.54224 0.143906H10.7342L6.60624 11.5039H4.11024ZM13.667 11.6959C12.771 11.6959 12.051 11.4932 11.507 11.0879C10.963 10.6719 10.691 10.0959 10.691 9.35991C10.691 8.62391 10.9203 8.04791 11.379 7.63191C11.8377 7.21591 12.5363 6.91724 13.475 6.73591L16.307 6.17591C16.307 5.56791 16.1683 5.11457 15.891 4.81591C15.6137 4.50657 15.203 4.35191 14.659 4.35191C14.1683 4.35191 13.779 4.46924 13.491 4.70391C13.2137 4.92791 13.0217 5.25324 12.915 5.67991L10.835 5.58391C11.0057 4.67724 11.4217 3.98391 12.083 3.50391C12.7443 3.01324 13.603 2.76791 14.659 2.76791C15.875 2.76791 16.7923 3.07724 17.411 3.69591C18.0403 4.30391 18.355 5.17857 18.355 6.31991V9.42391C18.355 9.64791 18.3923 9.80257 18.467 9.88791C18.5523 9.97324 18.675 10.0159 18.835 10.0159H19.107V11.5039C19.043 11.5252 18.9363 11.5412 18.787 11.5519C18.6483 11.5626 18.5043 11.5679 18.355 11.5679C18.003 11.5679 17.6883 11.5146 17.411 11.4079C17.1337 11.2906 16.9203 11.0932 16.771 10.8159C16.6217 10.5279 16.547 10.1386 16.547 9.64791L16.723 9.77591C16.6377 10.1492 16.451 10.4852 16.163 10.7839C15.8857 11.0719 15.5337 11.2959 15.107 11.4559C14.6803 11.6159 14.2003 11.6959 13.667 11.6959ZM14.083 10.2079C14.5417 10.2079 14.9363 10.1172 15.267 9.93591C15.5977 9.75457 15.8537 9.50391 16.035 9.18391C16.2163 8.86391 16.307 8.48524 16.307 8.04791V7.56791L14.099 8.01591C13.6403 8.11191 13.3097 8.25591 13.107 8.44791C12.915 8.62924 12.819 8.86924 12.819 9.16791C12.819 9.49857 12.9257 9.75457 13.139 9.93591C13.363 10.1172 13.6777 10.2079 14.083 10.2079ZM20.341 11.5039V2.95991H22.261L22.341 5.32791L22.165 5.29591C22.293 4.47457 22.533 3.88257 22.885 3.51991C23.2477 3.14657 23.7383 2.95991 24.357 2.95991H25.141V4.71991H24.341C23.9037 4.71991 23.541 4.78391 23.253 4.91191C22.965 5.03991 22.7463 5.24257 22.597 5.51991C22.4583 5.78657 22.389 6.13857 22.389 6.57591V11.5039H20.341ZM26.2763 11.5039V2.95991H28.1323L28.2123 5.35991L27.9723 5.26391C28.0576 4.66657 28.2336 4.18657 28.5003 3.82391C28.7669 3.46124 29.0923 3.19457 29.4763 3.02391C29.8603 2.85324 30.2816 2.76791 30.7403 2.76791C31.3696 2.76791 31.8976 2.90657 32.3243 3.18391C32.7616 3.46124 33.0923 3.84524 33.3163 4.33591C33.5403 4.81591 33.6523 5.37591 33.6523 6.01591V11.5039H31.6043V6.67191C31.6043 6.19191 31.5563 5.78657 31.4603 5.45591C31.3643 5.12524 31.2043 4.87457 30.9803 4.70391C30.7669 4.52257 30.4789 4.43191 30.1163 4.43191C29.5723 4.43191 29.1349 4.62391 28.8043 5.00791C28.4843 5.39191 28.3243 5.94657 28.3243 6.67191V11.5039H26.2763ZM35.649 11.5039V2.95991H37.697V11.5039H35.649ZM35.617 1.82391V-9.44138e-05H37.745V1.82391H35.617ZM43.1656 11.6959C42.323 11.6959 41.6136 11.5732 41.0376 11.3279C40.4723 11.0826 40.035 10.7412 39.7256 10.3039C39.4163 9.86657 39.2403 9.37057 39.1976 8.81591L41.2936 8.71991C41.3683 9.16791 41.555 9.51457 41.8536 9.75991C42.1523 10.0052 42.595 10.1279 43.1816 10.1279C43.6616 10.1279 44.035 10.0532 44.3016 9.90391C44.579 9.74391 44.7176 9.49857 44.7176 9.16791C44.7176 8.97591 44.6696 8.81591 44.5736 8.68791C44.4776 8.55991 44.2963 8.44791 44.0296 8.35191C43.763 8.25591 43.3683 8.15991 42.8456 8.06391C41.971 7.91457 41.283 7.73324 40.7816 7.51991C40.2803 7.29591 39.923 7.01857 39.7096 6.68791C39.507 6.35724 39.4056 5.94657 39.4056 5.45591C39.4056 4.65591 39.7096 4.01057 40.3176 3.51991C40.9363 3.01857 41.8376 2.76791 43.0216 2.76791C43.7896 2.76791 44.435 2.89591 44.9576 3.15191C45.4803 3.39724 45.8856 3.73857 46.1736 4.17591C46.4723 4.60257 46.659 5.09324 46.7336 5.64791L44.6696 5.74391C44.6163 5.45591 44.5203 5.20524 44.3816 4.99191C44.243 4.77857 44.0563 4.61857 43.8216 4.51191C43.587 4.39457 43.3096 4.33591 42.9896 4.33591C42.5096 4.33591 42.147 4.43191 41.9016 4.62391C41.6563 4.81591 41.5336 5.07191 41.5336 5.39191C41.5336 5.61591 41.587 5.80257 41.6936 5.95191C41.811 6.10124 41.9976 6.22391 42.2536 6.31991C42.5096 6.40524 42.851 6.48524 43.2776 6.55991C44.1736 6.69857 44.8776 6.87991 45.3896 7.10391C45.9123 7.31724 46.2803 7.59457 46.4936 7.93591C46.7176 8.26657 46.8296 8.66657 46.8296 9.13591C46.8296 9.67991 46.675 10.1439 46.3656 10.5279C46.067 10.9119 45.6403 11.2052 45.0856 11.4079C44.5416 11.5999 43.9016 11.6959 43.1656 11.6959ZM48.332 11.5039V0.143906H50.38V4.91191H50.124C50.2093 4.42124 50.38 4.02124 50.636 3.71191C50.892 3.39191 51.2067 3.15724 51.58 3.00791C51.9533 2.84791 52.364 2.76791 52.812 2.76791C53.4413 2.76791 53.9693 2.90657 54.396 3.18391C54.8333 3.45057 55.1587 3.82924 55.372 4.31991C55.596 4.81057 55.708 5.37591 55.708 6.01591V11.5039H53.66V6.51191C53.66 5.81857 53.5427 5.30124 53.308 4.95991C53.0733 4.60791 52.7053 4.43191 52.204 4.43191C51.6493 4.43191 51.2067 4.61324 50.876 4.97591C50.5453 5.33857 50.38 5.86657 50.38 6.55991V11.5039H48.332Z" fill="white"/>
</svg>
